<svg xmlns="http://www.w3.org/2000/svg" width="426" height="104" viewBox="0 0 426 104" xmlns:c2pa="http://c2pa.org/manifest"><metadata><c2pa:manifest>AAAWgmp1bWIAAAAeanVtZGMycGEAEQAQgAAAqgA4m3EDYzJwYQAAABZcanVtYgAAAEdqdW1kYzJtYQARABCAAACqADibcQN1cm46YzJwYTo5MjAzNWQ2Ni02ODU2LTQ0OWQtYjUzMC0wZTdiYzk5YjFkNzMAAAADl2p1bWIAAAApanVtZGMyYXMAEQAQgAAAqgA4m3EDYzJwYS5hc3NlcnRpb25zAAAAALxqdW1iAAAARGp1bWRjYm9yABEAEIAAAKoAOJtxE2MycGEuaW5ncmVkaWVudC52MwAAAAAYYzJzaC96kDGpBaIQoqax86m2w2wAAABwY2JvcqNpZGM6Zm9ybWF0bWltYWdlL3N2Zyt4bWxqaW5zdGFuY2VJRHgseG1wOmlpZDo1OTYyNTEwMC0yZDViLTQ0MzEtYjM3MS1hOGFmN2IzMzQ1MjdscmVsYXRpb25zaGlwaHBhcmVudE9mAAAB4mp1bWIAAABBanVtZGNib3IAEQAQgAAAqgA4m3ETYzJwYS5hY3Rpb25zLnYyAAAAABhjMnNodvJgdocVNiAGm8lNywMmhQAAAZljYm9yomdhY3Rpb25zgqJmYWN0aW9ua2MycGEub3BlbmVkanBhcmFtZXRlcnOha2luZ3JlZGllbnRzgaJjdXJseC1zZWxmI2p1bWJmPWMycGEuYXNzZXJ0aW9ucy9jMnBhLmluZ3JlZGllbnQudjNkaGFzaFgg1n9r+VP5ROFFkaolRy7DAaviLgHWg8y4Ib+IhSBSNTCkZmFjdGlvbngdY29tLmFudGhyb3BpYy5jbGF1ZGUucHJvdmlkZWRqcGFyYW1ldGVyc6F4H2NvbS5hbnRocm9waWMub3JpZ2luLWNvbmZpZGVuY2VndW5rbm93bmtkZXNjcmlwdGlvbnhmQ2xhdWRlIHByb3ZpZGVkIHRoaXMgZmlsZSBhdCB0aGUgcmVxdWVzdCBvZiBhIHVzZXIgYW5kIG1heSBoYXZlIGNyZWF0ZWQgb3IgbW9kaWZpZWQgdGhlIGZpbGUgY29udGVudHMubXNvZnR3YXJlQWdlbnShZG5hbWVmQ2xhdWRlcmFsbEFjdGlvbnNJbmNsdWRlZPUAAADIanVtYgAAAEBqdW1kY2JvcgARABCAAACqADibcRNjMnBhLmhhc2guZGF0YQAAAAAYYzJzaBYZ9w71Z4WHBXv7sxmJLx0AAACAY2JvcqVjYWxnZnNoYTI1NmNwYWRNAAAAAAAAAAAAAAAAAGRoYXNoWCCFv1UTr8wPKYZbACB19lnbeMObbJMGXoCx6LzjwGXlrWRuYW1lbmp1bWJmIG1hbmlmZXN0amV4Y2x1c2lvbnOBomVzdGFydBiWZmxlbmd0aBkeBAAAAj5qdW1iAAAAJ2p1bWRjMmNsABEAEIAAAKoAOJtxA2MycGEuY2xhaW0udjIAAAACD2Nib3KlY2FsZ2ZzaGEyNTZpc2lnbmF0dXJleE1zZWxmI2p1bWJmPS9jMnBhL3VybjpjMnBhOjkyMDM1ZDY2LTY4NTYtNDQ5ZC1iNTMwLTBlN2JjOTliMWQ3My9jMnBhLnNpZ25hdHVyZWppbnN0YW5jZUlEeCx4bXA6aWlkOjk4OGYyNjliLTM2NmItNDYyZi1iMGM5LWM1NmY4ZDNhNjA0ZXJjcmVhdGVkX2Fzc2VydGlvbnODomN1cmx4LXNlbGYjanVtYmY9YzJwYS5hc3NlcnRpb25zL2MycGEuaW5ncmVkaWVudC52M2RoYXNoWCDWf2v5U/lE4UWRqiVHLsMBq+IuAdaDzLghv4iFIFI1MKJjdXJseCpzZWxmI2p1bWJmPWMycGEuYXNzZXJ0aW9ucy9jMnBhLmFjdGlvbnMudjJkaGFzaFgg5v61E8mFd7PVSu+MDOj3wxbIYA4bcBieFNKxzNB7zyiiY3VybHgpc2VsZiNqdW1iZj1jMnBhLmFzc2VydGlvbnMvYzJwYS5oYXNoLmRhdGFkaGFzaFggqViv58SoE6CjC/XJ6LuKxKwlpZvC03ycfJnT8RgOIxB0Y2xhaW1fZ2VuZXJhdG9yX2luZm+jZG5hbWVvQW50aHJvcGljIEZpbGVzZ3ZlcnNpb25lMS4wLjBrc3BlY1ZlcnNpb25lMi40LjAAABA4anVtYgAAAChqdW1kYzJjcwARABCAAACqADibcQNjMnBhLnNpZ25hdHVyZQAAABAIY2JvctKEWQISogEmGCFZAgowggIGMIIBjaADAgECAhRA5aAK7sI50L64g/oGQgU9Z1UTADAKBggqhkjOPQQDAzBJMRcwFQYDVQQKEw5BbnRocm9waWMsIFBCQzEuMCwGA1UEAxMlQW50aHJvcGljIENvbnRlbnQgQ3JlZGVudGlhbHMgUm9vdCBDQTAeFw0yNjA4MDcxODQzNTZaFw0yODA4MDYxOTQzNTZaMEQxFzAVBgNVBAoTDkFudGhyb3BpYywgUEJDMSkwJwYDVQQDEyBBbnRocm9waWMgQ2xhdWRlIENvbnRlbnQgU2lnbmluZzBZMBMGByqGSM49AgEGCCqGSM49AwEHA0IABJh6CmvLUBgFFNU0vUKlOVtE6djd17L5SuwX0LemFisBM3dkd/3cyjxFA3Qo5S46fX0/ihY0VZ7mfb9KF703t5OjWDBWMA4GA1UdDwEB/wQEAwIHgDAVBgNVHSUEDjAMBgorBgEEAYPoXgIBMAwGA1UdEwEB/wQCMAAwHwYDVR0jBBgwFoAUzlHiBIFOZFsj+OPEz5o+nMHXXMIwCgYIKoZIzj0EAwMDZwAwZAIwMXMdFJ4BetLLVY7ORuE9noqbbAZOZn/aArXyTwFAZfKrPzxF2vPoJNf1+UCdg1XGAjBwX1zd9WGqYkqmL5SFqw1QySjr1zJfpJM9+1rdDwSPLMOPOjKuiXjoU/pUUeG9RwmhY3BhZFkNngAAAAAAAAAAAAAAAAAAAAAAAAAAAAAAAAAAAAAAAAAAAAAAAAAAAAAAAAAAAAAAAAAAAAAAAAAAAAAAAAAAAAAAAAAAAAAAAAAAAAAAAAAAAAAAAAAAAAAAAAAAAAAAAAAAAAAAAAAAAAAAAAAAAAAAAAAAAAAAAAAAAAAAAAAAAAAAAAAAAAAAAAAAAAAAAAAAAAAAAAAAAAAAAAAAAAAAAAAAAAAAAAAAAAAAAAAAAAAAAAAAAAAAAAAAAAAAAAAAAAAAAAAAAAAAAAAAAAAAAAAAAAAAAAAAAAAAAAAAAAAAAAAAAAAAAAAAAAAAAAAAAAAAAAAAAAAAAAAAAAAAAAAAAAAAAAAAAAAAAAAAAAAAAAAAAAAAAAAAAAAAAAAAAAAAAAAAAAAAAAAAAAAAAAAAAAAAAAAAAAAAAAAAAAAAAAAAAAAAAAAAAAAAAAAAAAAAAAAAAAAAAAAAAAAAAAAAAAAAAAAAAAAAAAAAAAAAAAAAAAAAAAAAAAAAAAAAAAAAAAAAAAAAAAAAAAAAAAAAAAAAAAAAAAAAAAAAAAAAAAAAAAAAAAAAAAAAAAAAAAAAAAAAAAAAAAAAAAAAAAAAAAAAAAAAAAAAAAAAAAAAAAAAAAAAAAAAAAAAAAAAAAAAAAAAAAAAAAAAAAAAAAAAAAAAAAAAAAAAAAAAAAAAAAAAAAAAAAAAAAAAAAAAAAAAAAAAAAAAAAAAAAAAAAAAAAAAAAAAAAAAAAAAAAAAAAAAAAAAAAAAAAAAAAAAAAAAAAAAAAAAAAAAAAAAAAAAAAAAAAAAAAAAAAAAAAAAAAAAAAAAAAAAAAAAAAAAAAAAAAAAAAAAAAAAAAAAAAAAAAAAAAAAAAAAAAAAAAAAAAAAAAAAAAAAAAAAAAAAAAAAAAAAAAAAAAAAAAAAAAAAAAAAAAAAAAAAAAAAAAAAAAAAAAAAAAAAAAAAAAAAAAAAAAAAAAAAAAAAAAAAAAAAAAAAAAAAAAAAAAAAAAAAAAAAAAAAAAAAAAAAAAAAAAAAAAAAAAAAAAAAAAAAAAAAAAAAAAAAAAAAAAAAAAAAAAAAAAAAAAAAAAAAAAAAAAAAAAAAAAAAAAAAAAAAAAAAAAAAAAAAAAAAAAAAAAAAAAAAAAAAAAAAAAAAAAAAAAAAAAAAAAAAAAAAAAAAAAAAAAAAAAAAAAAAAAAAAAAAAAAAAAAAAAAAAAAAAAAAAAAAAAAAAAAAAAAAAAAAAAAAAAAAAAAAAAAAAAAAAAAAAAAAAAAAAAAAAAAAAAAAAAAAAAAAAAAAAAAAAAAAAAAAAAAAAAAAAAAAAAAAAAAAAAAAAAAAAAAAAAAAAAAAAAAAAAAAAAAAAAAAAAAAAAAAAAAAAAAAAAAAAAAAAAAAAAAAAAAAAAAAAAAAAAAAAAAAAAAAAAAAAAAAAAAAAAAAAAAAAAAAAAAAAAAAAAAAAAAAAAAAAAAAAAAAAAAAAAAAAAAAAAAAAAAAAAAAAAAAAAAAAAAAAAAAAAAAAAAAAAAAAAAAAAAAAAAAAAAAAAAAAAAAAAAAAAAAAAAAAAAAAAAAAAAAAAAAAAAAAAAAAAAAAAAAAAAAAAAAAAAAAAAAAAAAAAAAAAAAAAAAAAAAAAAAAAAAAAAAAAAAAAAAAAAAAAAAAAAAAAAAAAAAAAAAAAAAAAAAAAAAAAAAAAAAAAAAAAAAAAAAAAAAAAAAAAAAAAAAAAAAAAAAAAAAAAAAAAAAAAAAAAAAAAAAAAAAAAAAAAAAAAAAAAAAAAAAAAAAAAAAAAAAAAAAAAAAAAAAAAAAAAAAAAAAAAAAAAAAAAAAAAAAAAAAAAAAAAAAAAAAAAAAAAAAAAAAAAAAAAAAAAAAAAAAAAAAAAAAAAAAAAAAAAAAAAAAAAAAAAAAAAAAAAAAAAAAAAAAAAAAAAAAAAAAAAAAAAAAAAAAAAAAAAAAAAAAAAAAAAAAAAAAAAAAAAAAAAAAAAAAAAAAAAAAAAAAAAAAAAAAAAAAAAAAAAAAAAAAAAAAAAAAAAAAAAAAAAAAAAAAAAAAAAAAAAAAAAAAAAAAAAAAAAAAAAAAAAAAAAAAAAAAAAAAAAAAAAAAAAAAAAAAAAAAAAAAAAAAAAAAAAAAAAAAAAAAAAAAAAAAAAAAAAAAAAAAAAAAAAAAAAAAAAAAAAAAAAAAAAAAAAAAAAAAAAAAAAAAAAAAAAAAAAAAAAAAAAAAAAAAAAAAAAAAAAAAAAAAAAAAAAAAAAAAAAAAAAAAAAAAAAAAAAAAAAAAAAAAAAAAAAAAAAAAAAAAAAAAAAAAAAAAAAAAAAAAAAAAAAAAAAAAAAAAAAAAAAAAAAAAAAAAAAAAAAAAAAAAAAAAAAAAAAAAAAAAAAAAAAAAAAAAAAAAAAAAAAAAAAAAAAAAAAAAAAAAAAAAAAAAAAAAAAAAAAAAAAAAAAAAAAAAAAAAAAAAAAAAAAAAAAAAAAAAAAAAAAAAAAAAAAAAAAAAAAAAAAAAAAAAAAAAAAAAAAAAAAAAAAAAAAAAAAAAAAAAAAAAAAAAAAAAAAAAAAAAAAAAAAAAAAAAAAAAAAAAAAAAAAAAAAAAAAAAAAAAAAAAAAAAAAAAAAAAAAAAAAAAAAAAAAAAAAAAAAAAAAAAAAAAAAAAAAAAAAAAAAAAAAAAAAAAAAAAAAAAAAAAAAAAAAAAAAAAAAAAAAAAAAAAAAAAAAAAAAAAAAAAAAAAAAAAAAAAAAAAAAAAAAAAAAAAAAAAAAAAAAAAAAAAAAAAAAAAAAAAAAAAAAAAAAAAAAAAAAAAAAAAAAAAAAAAAAAAAAAAAAAAAAAAAAAAAAAAAAAAAAAAAAAAAAAAAAAAAAAAAAAAAAAAAAAAAAAAAAAAAAAAAAAAAAAAAAAAAAAAAAAAAAAAAAAAAAAAAAAAAAAAAAAAAAAAAAAAAAAAAAAAAAAAAAAAAAAAAAAAAAAAAAAAAAAAAAAAAAAAAAAAAAAAAAAAAAAAAAAAAAAAAAAAAAAAAAAAAAAAAAAAAAAAAAAAAAAAAAAAAAAAAAAAAAAAAAAAAAAAAAAAAAAAAAAAAAAAAAAAAAAAAAAAAAAAAAAAAAAAAAAAAAAAAAAAAAAAAAAAAAAAAAAAAAAAAAAAAAAAAAAAAAAAAAAAAAAAAAAAAAAAAAAAAAAAAAAAAAAAAAAAAAAAAAAAAAAAAAAAAAAAAAAAAAAAAAAAAAAAAAAAAAAAAAAAAAAAAAAAAAAAAAAAAAAAAAAAAAAAAAAAAAAAAAAAAAAAAAAAAAAAAAAAAAAAAAAAAAAAAAAAAAAAAAAAAAAAAAAAAAAAAAAAAAAAAAAAAAAAAAAAAAAAAAAAAAAAAAAAAAAAAAAAAAAAAAAAAAAAAAAAAAAAAAAAAAAAAAAAAAAAAAAAAAAAAAAAAAAAAAAAAAAAAAAAAAAAAAAAAAAAAAAAAAAAAAAAAAAAAAAAAAAAAAAAAAAAAAAAAAAAAAAAAAAAAAAAAAAAAAAAAAAAAAAAAAAAAAAAAAAAAAAAAAAAAAAAAAAAAAAAAAAAAAAAAAAAAAAAAAAAAAAAAAAAAAAAAAAAAAAAAAAAAAAAAAAAAAAAAAAAAAAAAAAAAAAAAAAAAAAAAAAAAAAAAAAAAAAAAAAAAAAAAAAAAAAAAAAAAAAAAAAAAAAAAAAAAAAAAAAAAAAAAAAAAAAAAAAAAAAAAAAAAAAAAAAAAAAAAAAAAAAAAAAAAAAAAAAAAAAAAAAAAAAAAAAAAAAAAAAAAAAAAAAAAAAAAAAAAAAAAAAAAAAAAAAAAAAAAAAAAAAAAAAAAAAAAAAAAAAAAAAAAAAAAAAAAAAAAAAAAAAAAAAAAAAAAAAAAAAAAAAAAAAAAAAAAAAAAAAAAAAAAAAAAAAAAAAAAAAAAAAAAAAAAAAAAAAAAAAAAAAAAAAAAAAAAAAAAAAAAAAAAAAAAAAAAAAAAAAAAAAAAAAAAAAAAAAAAAAAAAAAAAAAAAAAAAAAAAAAAAAAAAAAAAAAAAAAAAAAAAAAAAAAAAAAAAAAAAAAAAAAAAAAAAAAAAAAAAAAAAAAAAAAAAAAAAAAAAAAAAAAAAAAAAAAAAAAAAAAAAAAAAAAAAAAAAAAAAAAAAAAAAAAAAAAAAAAAAAAAAAAAAAAAAAAAAAAAAAAAAAAAAAAAAAAAAAAAAAAAAAAAAAAAAAAAAAAAAAAAAAAAAAAAAAAAAAAAAAAAAAAAAAAAAAAAAAAAAAAAAAAAAAAAAAAAAAAAAAAAAAAAAAAAAAAAAAAAAAAAAAAAAAAAAAAAAAAAAAAAAAAAAAAAAAAAAAAAAAAAAAAAAAAAAAAAAAAAAAAAAAAAAAAAAAAAAAAAAAAAAAAAAAAAAAAAAAAAAAAAAAAAAAAAAAAAAAAAAAAAAAAAAAAAAAAAAAAAAAAAAAAAAAAAAAAAAAAAAAAAAAAAAAAAAAAAAAAAAAAAAAAAAAAAAAAAAAAAAAAAAAAAAAAAAAAAAAAAAAAAAAAAAAAAAAAAAAAAAAAAAAAAAAAAAAAAAAAAAAAAAAAAAAAAAAAAAAAAAAAAAAAAAAAAAAAAAAAAAAAAAAAAAAAAAAAAAAAAAAAAAAAAAAAAAAAAAAAAAAAAAAAAAAAAAAAAAAAAAAAAAAAAAAAAPZYQK6Q5H7P3GKemAXgT7CBhEJcYKQaDqkSuzwCY8Hj90F2Q/elfsYujEu1Q8dYgFcX6XuGtNp94rnp5KAZc5tF4Pg=</c2pa:manifest></metadata><g transform="scale(0.753623) translate(-18,-2)">
            <line data-dc-tpl="1875" x1="70" y1="30" x2="110" y2="22" stroke="#FFAB00" stroke-width="3" stroke-dasharray="2 6" stroke-linecap="round" data-om-id="507978e0:1880"></line>
            <g data-dc-tpl="1876" fill="#FFAB00" transform="translate(116,12) rotate(-12) scale(0.78)" data-om-id="507978e0:1881">
              <rect data-dc-tpl="1877" x="4" y="7" width="30" height="6.5" rx="3.25" data-om-id="507978e0:1882"></rect><path data-dc-tpl="1878" d="M6 8 L1 0 L13 7 Z" data-om-id="507978e0:1883"></path><path data-dc-tpl="1879" d="M17 13.5 L25 21 L17 21 L12 13.5 Z" data-om-id="507978e0:1884"></path>
            </g>
            <rect data-dc-tpl="1880" x="25" y="48" width="58" height="38" rx="19" fill="none" stroke="#E2E8F0" stroke-width="9" data-om-id="507978e0:1885"></rect>
            <rect data-dc-tpl="1881" x="71" y="48" width="58" height="38" rx="19" fill="none" stroke="#FFAB00" stroke-width="9" data-om-id="507978e0:1886"></rect>
            <rect data-dc-tpl="1882" x="117" y="48" width="58" height="38" rx="19" fill="none" stroke="#4A9BE8" stroke-width="9" data-om-id="507978e0:1887"></rect>
            <line data-dc-tpl="1883" x1="36" y1="67" x2="62" y2="67" stroke="#E2E8F0" stroke-width="3" stroke-dasharray="6 4.5" stroke-linecap="round" data-om-id="507978e0:1888"></line>
            <path data-dc-tpl="1884" d="M89 72 Q100 60 117 61" fill="none" stroke="#FFAB00" stroke-width="3" stroke-dasharray="2.5 4" stroke-linecap="round" data-om-id="507978e0:1889"></path>
            <path data-dc-tpl="1885" d="M135 69 q5 -5.5 10 0 t10 0 t10 0" fill="none" stroke="#4A9BE8" stroke-width="3" stroke-linecap="round" data-om-id="507978e0:1890"></path>
            <g data-dc-tpl="1886" fill="#E2E8F0" transform="translate(44,106) scale(0.62)" data-om-id="507978e0:1891">
              <rect data-dc-tpl="1887" x="0" y="0" width="20" height="12" rx="1.5" data-om-id="507978e0:1892"></rect><path data-dc-tpl="1888" d="M22 3 L27 3 L30.5 7 L30.5 12 L22 12 Z" data-om-id="507978e0:1893"></path>
              <circle data-dc-tpl="1889" cx="5" cy="15" r="2.8" data-om-id="507978e0:1894"></circle><circle data-dc-tpl="1890" cx="15" cy="15" r="2.8" data-om-id="507978e0:1895"></circle><circle data-dc-tpl="1891" cx="26" cy="15" r="2.8" data-om-id="507978e0:1896"></circle>
            </g>
            <g data-dc-tpl="1892" fill="#4A9BE8" transform="translate(135,106) scale(0.58)" data-om-id="507978e0:1897">
              <path data-dc-tpl="1893" d="M0 10 L38 10 L32 20 L6 20 Z" data-om-id="507978e0:1898"></path><rect data-dc-tpl="1894" x="8" y="3" width="6" height="6" data-om-id="507978e0:1899"></rect><rect data-dc-tpl="1895" x="16" y="0" width="6" height="9" data-om-id="507978e0:1900"></rect><rect data-dc-tpl="1896" x="24" y="3" width="6" height="6" data-om-id="507978e0:1901"></rect>
            </g>
          </g><g transform="translate(149.59,74.7)"><path fill="#FFFFFF" d="M32.54 0L23.30 0L21.52-9.31L11.35-9.31L9.57 0L0.53 0L9.90-45.41L23.17-45.41L32.54 0ZM20.13-17.16L16.63-36.83L16.24-36.83L12.67-17.16L20.13-17.16Z"></path><path fill="#FF6B00" d="M44.68-40.99L36.04-40.99L36.04-49.04L44.68-49.04L44.68-40.99ZM44.62 0L36.10 0L36.10-33.66L44.62-33.66L44.62 0Z"></path><path fill="#FFFFFF" d="M79.99 0L70.16 0L64.28-16.30L63.76-16.30L57.95 0L48.44 0L57.95-22.84L48.58-45.41L58.34-45.41L64.09-29.77L64.55-29.77L70.29-45.41L79.79-45.41L70.55-23.10L79.99 0Z"></path><g fill="#8FA3BA"><path d="M92.14 0L84.61 0L84.61-45.41L105.20-45.41L105.20-38.61L92.14-38.61L92.14-25.28L103.75-25.28L103.75-18.48L92.14-18.48L92.14 0Z"></path><path d="M137.48 0L129.56 0L124.67-16.57L118.21-16.57L118.21 0L110.68 0L110.68-45.41L125.33-45.41Q130.09-45.41 132.50-43.76Q134.90-42.11 135.73-39.07Q136.55-36.04 136.55-31.02L136.55-31.02Q136.55-26.14 135.60-22.90Q134.64-19.67 131.74-18.15L131.74-18.15L137.48 0ZM123.55-23.36Q126.06-23.36 127.18-23.99Q128.30-24.62 128.67-26.17Q129.03-27.72 129.03-31.02L129.03-31.02Q129.03-34.32 128.67-35.84Q128.30-37.36 127.18-37.98Q126.06-38.61 123.55-38.61L123.55-38.61L118.21-38.61L118.21-23.36L123.55-23.36Z"></path><path d="M164.67 0L143.02 0L143.02-45.41L164.67-45.41L164.67-38.61L150.55-38.61L150.55-26.33L162.76-26.33L162.76-19.54L150.55-19.54L150.55-6.80L164.67-6.80L164.67 0Z"></path><path d="M178.60 0L171.01 0L171.01-45.41L178.60-45.41L178.60 0Z"></path><path d="M203.87-19.07L198.99-19.07L198.99-25.81L211.13-25.81L211.13-0.79Q209.02-0.20 205.89 0.17Q202.75 0.53 199.91 0.53L199.91 0.53Q193.78 0.53 190.77-1.35Q187.77-3.23 186.65-8.05Q185.53-12.87 185.53-22.70L185.53-22.70Q185.53-32.54 186.71-37.36Q187.90-42.17 191.00-44.05Q194.11-45.94 200.44-45.94L200.44-45.94Q202.95-45.94 205.92-45.57Q208.89-45.21 211.00-44.62L211.00-44.62L211.00-38.28Q208.89-38.61 206.48-38.87Q204.07-39.14 202.82-39.14L202.82-39.14Q198.07-39.14 196.25-38.31Q194.44-37.49 193.74-34.22Q193.05-30.95 193.05-22.70L193.05-22.70Q193.05-15.05 193.51-11.75Q193.97-8.45 195.36-7.26Q196.75-6.07 199.98-6.07L199.98-6.07Q201.76-6.07 203.87-6.40L203.87-6.40L203.87-19.07Z"></path><path d="M245.12 0L237.60 0L237.60-19.34L225.98-19.34L225.98 0L218.46 0L218.46-45.41L225.98-45.41L225.98-26.40L237.60-26.40L237.60-45.41L245.12-45.41L245.12 0Z"></path><path d="M266.38 0L258.85 0L258.85-38.41L249.74-38.41L249.74-45.41L275.42-45.41L275.42-38.41L266.38-38.41L266.38 0Z"></path></g></g></svg>